<svg width="171" height="43" viewBox="0 0 171 43" fill="none" xmlns="http://www.w3.org/2000/svg">
<path d="M12.4797 40.6086V41.9953H13.8664V40.6086H12.4797ZM4.95229 40.6086L3.8925 41.5028C4.15597 41.8151 4.54373 41.9953 4.95229 41.9953V40.6086ZM1.38666 36.3827H2.26498e-05C2.26498e-05 36.71 0.115799 37.0267 0.326865 37.2769L1.38666 36.3827ZM1.38666 4.95229L0.406159 3.97179C0.146114 4.23184 2.26498e-05 4.58453 2.26498e-05 4.95229H1.38666ZM4.95229 1.38666V2.26498e-05C4.58453 2.26498e-05 4.23184 0.146114 3.97179 0.406159L4.95229 1.38666ZM38.8918 1.38666L39.8723 0.406159C39.6123 0.146114 39.2596 2.26498e-05 38.8918 2.26498e-05V1.38666ZM42.4575 4.95229H43.8441C43.8441 4.58453 43.698 4.23184 43.438 3.97179L42.4575 4.95229ZM42.4575 36.3827L43.5173 37.2769C43.7283 37.0267 43.8441 36.71 43.8441 36.3827H42.4575ZM38.8918 40.6086V41.9953C39.3004 41.9953 39.6882 41.8151 39.9516 41.5028L38.8918 40.6086ZM31.5625 40.6086H30.1758V41.9953H31.5625V40.6086ZM12.4797 20.0072H11.0931V40.6086H12.4797H13.8664V20.0072H12.4797ZM12.4797 40.6086V39.222H4.95229V40.6086V41.9953H12.4797V40.6086ZM4.95229 40.6086L6.01208 39.7144L2.44645 35.4885L1.38666 36.3827L0.326865 37.2769L3.8925 41.5028L4.95229 40.6086ZM1.38666 36.3827H2.77329V4.95229H1.38666H2.26498e-05V36.3827H1.38666ZM1.38666 4.95229L2.36716 5.93279L5.93279 2.36716L4.95229 1.38666L3.97179 0.406159L0.406159 3.97179L1.38666 4.95229ZM4.95229 1.38666V2.77329H38.8918V1.38666V2.26498e-05H4.95229V1.38666ZM38.8918 1.38666L37.9113 2.36716L41.477 5.93279L42.4575 4.95229L43.438 3.97179L39.8723 0.406159L38.8918 1.38666ZM42.4575 4.95229H41.0708V36.3827H42.4575H43.8441V4.95229H42.4575ZM38.8918 40.6086V39.222H31.5625V40.6086V41.9953H38.8918V40.6086ZM31.5625 40.6086H32.9491V22.9785H31.5625H30.1758V40.6086H31.5625ZM17.2339 23.5728H15.8473V42.0613H17.2339H18.6206V23.5728H17.2339ZM21.856 11.4893H20.4694V42.0613H21.856H23.2427V11.4893H21.856ZM24.8934 25.9499L23.5269 26.1851L26.3002 42.2965L27.6667 42.0613L29.0332 41.8261L26.26 25.7147L24.8934 25.9499ZM42.4575 36.3827L41.3977 35.4885L37.832 39.7144L38.8918 40.6086L39.9516 41.5028L43.5173 37.2769L42.4575 36.3827Z" fill="white"/>
<path d="M60.0258 25.2812L68.4464 4.70403H70.4626L78.8536 25.2812H75.8293L68.9208 7.87658H69.9586L62.9908 25.2812H60.0258ZM64.0286 20.6261V18.1948H74.8509V20.6261H64.0286Z" fill="white"/>
<path d="M81.7086 25.2812V11.1974H84.3771V25.2812H81.7086ZM84.3771 17.246L83.369 16.8012C83.369 15.0025 83.7841 13.5694 84.6143 12.502C85.4445 11.4346 86.6404 10.9009 88.2019 10.9009C88.9135 10.9009 89.556 11.0294 90.1292 11.2863C90.7024 11.5235 91.2361 11.9288 91.7303 12.502L89.9809 14.3106C89.6844 13.9944 89.3583 13.7671 89.0025 13.6287C88.6467 13.4903 88.2316 13.4211 87.7572 13.4211C86.7689 13.4211 85.9584 13.7374 85.3259 14.3699C84.6934 15.0025 84.3771 15.9612 84.3771 17.246Z" fill="white"/>
<path d="M99.5799 25.5777C98.1963 25.5777 96.9411 25.2515 95.8144 24.5992C94.7074 23.9469 93.8278 23.0673 93.1755 21.9604C92.543 20.8337 92.2267 19.5884 92.2267 18.2244C92.2267 16.8408 92.543 15.5955 93.1755 14.4885C93.8278 13.3816 94.7074 12.5119 95.8144 11.8793C96.9411 11.227 98.1963 10.9009 99.5799 10.9009C100.667 10.9009 101.675 11.1084 102.604 11.5235C103.533 11.9189 104.334 12.502 105.006 13.2729L103.227 15.0519C102.792 14.538 102.258 14.1525 101.626 13.8955C101.013 13.6188 100.331 13.4804 99.5799 13.4804C98.6904 13.4804 97.8998 13.688 97.2079 14.1031C96.5161 14.4984 95.9725 15.0519 95.5772 15.7635C95.1818 16.4751 94.9842 17.2954 94.9842 18.2244C94.9842 19.1535 95.1818 19.9738 95.5772 20.6854C95.9725 21.397 96.5161 21.9604 97.2079 22.3755C97.8998 22.7906 98.6904 22.9981 99.5799 22.9981C100.331 22.9981 101.013 22.8696 101.626 22.6127C102.258 22.3359 102.802 21.9406 103.257 21.4267L105.006 23.2057C104.354 23.9568 103.553 24.5399 102.604 24.955C101.675 25.3701 100.667 25.5777 99.5799 25.5777Z" fill="white"/>
<path d="M117.615 25.2812V17.0681C117.615 16.0007 117.279 15.1211 116.607 14.4292C115.935 13.7374 115.065 13.3915 113.997 13.3915C113.286 13.3915 112.653 13.5496 112.1 13.8659C111.546 14.1822 111.112 14.617 110.795 15.1705C110.479 15.724 110.321 16.3565 110.321 17.0681L109.224 16.4454C109.224 15.378 109.461 14.4292 109.935 13.599C110.41 12.7688 111.072 12.1165 111.922 11.6421C112.772 11.148 113.731 10.9009 114.798 10.9009C115.865 10.9009 116.804 11.1381 117.615 11.6125C118.445 12.0869 119.097 12.7491 119.572 13.599C120.046 14.449 120.283 15.4275 120.283 16.5344V25.2812H117.615ZM107.652 25.2812V4.11102H110.321V25.2812H107.652Z" fill="white"/>
<path d="M123.926 25.2812V11.1974H126.594V25.2812H123.926ZM125.26 8.38063C124.766 8.38063 124.361 8.2225 124.044 7.90623C123.728 7.5702 123.57 7.1551 123.57 6.66093C123.57 6.18653 123.728 5.79119 124.044 5.47493C124.361 5.13889 124.766 4.97087 125.26 4.97087C125.754 4.97087 126.159 5.13889 126.476 5.47493C126.792 5.79119 126.95 6.18653 126.95 6.66093C126.95 7.1551 126.792 7.5702 126.476 7.90623C126.159 8.2225 125.754 8.38063 125.26 8.38063Z" fill="white"/>
<path d="M135.36 25.2812L128.896 11.1974H131.861L137.05 23.0871H135.33L140.549 11.1974H143.395L136.931 25.2812H135.36Z" fill="white"/>
<path d="M151.334 25.5777C150.187 25.5777 149.149 25.3207 148.22 24.8068C147.311 24.2731 146.599 23.5417 146.086 22.6127C145.572 21.6836 145.315 20.6063 145.315 19.3808V11.1974H147.983V19.2622C147.983 20.0331 148.112 20.7052 148.369 21.2784C148.645 21.8319 149.041 22.2569 149.555 22.5534C150.069 22.8499 150.671 22.9981 151.363 22.9981C152.411 22.9981 153.231 22.672 153.824 22.0197C154.417 21.3476 154.714 20.4284 154.714 19.2622V11.1974H157.382V19.3808C157.382 20.6063 157.125 21.6836 156.611 22.6127C156.097 23.5417 155.386 24.2731 154.477 24.8068C153.587 25.3207 152.539 25.5777 151.334 25.5777Z" fill="white"/>
<path d="M165.436 25.5777C164.645 25.5777 163.894 25.4788 163.183 25.2812C162.491 25.0637 161.848 24.7672 161.255 24.3917C160.662 23.9963 160.148 23.5318 159.713 22.9981L161.433 21.2784C161.947 21.9109 162.54 22.3853 163.212 22.7016C163.884 22.9981 164.635 23.1464 165.466 23.1464C166.296 23.1464 166.938 23.008 167.393 22.7313C167.847 22.4348 168.075 22.0295 168.075 21.5156C168.075 21.0017 167.887 20.6063 167.511 20.3296C167.156 20.0331 166.691 19.7959 166.118 19.618C165.545 19.4203 164.932 19.2326 164.28 19.0547C163.647 18.857 163.044 18.6099 162.471 18.3134C161.898 18.0169 161.423 17.6117 161.048 17.0977C160.692 16.5838 160.514 15.9019 160.514 15.0519C160.514 14.2019 160.722 13.4706 161.137 12.8578C161.552 12.2253 162.125 11.741 162.856 11.4049C163.608 11.0689 164.507 10.9009 165.555 10.9009C166.661 10.9009 167.64 11.0986 168.49 11.4939C169.36 11.8695 170.071 12.4427 170.625 13.2136L168.905 14.9333C168.51 14.4194 168.015 14.024 167.422 13.7473C166.849 13.4706 166.197 13.3322 165.466 13.3322C164.695 13.3322 164.102 13.4706 163.687 13.7473C163.291 14.0043 163.094 14.3699 163.094 14.8443C163.094 15.3187 163.271 15.6844 163.627 15.9414C163.983 16.1984 164.448 16.4158 165.021 16.5937C165.614 16.7716 166.227 16.9594 166.859 17.157C167.492 17.3349 168.095 17.582 168.668 17.8983C169.241 18.2146 169.706 18.6396 170.061 19.1733C170.437 19.707 170.625 20.4087 170.625 21.2784C170.625 22.6028 170.15 23.6504 169.201 24.4213C168.272 25.1922 167.017 25.5777 165.436 25.5777Z" fill="white"/>
<path d="M59.5866 34.8501V34.3053H64.4022V34.8501H62.2976V40.9466H61.6912V34.8501H59.5866Z" fill="white"/>
<path d="M66.2246 37.8335V40.9466H65.6474V34.3053H66.2246V36.7472H66.2765C66.3933 36.4899 66.5738 36.2845 66.8181 36.131C67.0645 35.9775 67.3758 35.9008 67.752 35.9008C68.0893 35.9008 68.3854 35.97 68.6405 36.1083C68.8956 36.2467 69.0945 36.451 69.2372 36.7212C69.3799 36.9914 69.4513 37.3244 69.4513 37.72V40.9466H68.8708V37.7557C68.8708 37.3449 68.7562 37.0217 68.527 36.7861C68.3001 36.5483 67.9931 36.4294 67.6061 36.4294C67.3402 36.4294 67.1035 36.4856 66.8959 36.598C66.6884 36.7104 66.5241 36.8725 66.403 37.0844C66.2841 37.2941 66.2246 37.5438 66.2246 37.8335Z" fill="white"/>
<path d="M72.9851 41.0504C72.5203 41.0504 72.1182 40.9423 71.7788 40.7261C71.4394 40.5077 71.1767 40.2062 70.9908 39.8213C70.807 39.4344 70.7151 38.989 70.7151 38.4853C70.7151 37.9837 70.807 37.5384 70.9908 37.1493C71.1767 36.758 71.4329 36.4521 71.7593 36.2315C72.0879 36.0089 72.4673 35.8975 72.8976 35.8975C73.1678 35.8975 73.4283 35.9473 73.6791 36.0467C73.9298 36.144 74.1547 36.2942 74.3536 36.4975C74.5546 36.6985 74.7135 36.9525 74.8303 37.2595C74.947 37.5643 75.0054 37.9254 75.0054 38.3426V38.628H71.114V38.1189H74.4152C74.4152 37.7989 74.3503 37.5114 74.2206 37.2563C74.0931 36.999 73.9147 36.7958 73.6856 36.6466C73.4586 36.4975 73.1959 36.4229 72.8976 36.4229C72.5819 36.4229 72.3041 36.5072 72.0641 36.6758C71.8242 36.8444 71.6361 37.0671 71.4999 37.3438C71.3659 37.6206 71.2978 37.9232 71.2956 38.2518V38.5566C71.2956 38.9523 71.3637 39.2982 71.4999 39.5943C71.6383 39.8884 71.8339 40.1164 72.0868 40.2786C72.3398 40.4407 72.6392 40.5218 72.9851 40.5218C73.2208 40.5218 73.4272 40.485 73.6045 40.4115C73.7839 40.338 73.9342 40.2397 74.0552 40.1164C74.1785 39.991 74.2714 39.8538 74.3341 39.7046L74.8822 39.883C74.8065 40.0927 74.6822 40.2861 74.5092 40.4634C74.3384 40.6407 74.1244 40.7834 73.8672 40.8915C73.6121 40.9974 73.318 41.0504 72.9851 41.0504Z" fill="white"/>
<path d="M80.8951 35.9656V36.4683H78.4468V35.9656H80.8951ZM79.2121 40.9466V35.236C79.2121 34.9679 79.2737 34.742 79.397 34.5583C79.5224 34.3745 79.6856 34.2351 79.8866 34.1399C80.0877 34.0448 80.3006 33.9972 80.5255 33.9972C80.6768 33.9972 80.8022 34.0102 80.9016 34.0362C81.0032 34.0599 81.0832 34.0837 81.1416 34.1075L80.973 34.6134C80.9297 34.6004 80.8768 34.5853 80.8141 34.568C80.7514 34.5507 80.6725 34.542 80.5773 34.542C80.3266 34.542 80.1331 34.6123 79.9969 34.7528C79.8607 34.8933 79.7926 35.0944 79.7926 35.356L79.7893 40.9466H79.2121Z" fill="white"/>
<path d="M85.2121 39.0431V35.9656H85.7894V40.9466H85.2121V40.1197H85.1667C85.05 40.3748 84.8652 40.5877 84.6122 40.7585C84.3593 40.9271 84.0501 41.0115 83.6848 41.0115C83.367 41.0115 83.0849 40.9423 82.8384 40.8039C82.5919 40.6634 82.3985 40.458 82.2579 40.1878C82.1174 39.9175 82.0472 39.5857 82.0472 39.1922V35.9656H82.6244V39.1566C82.6244 39.5457 82.739 39.8592 82.9681 40.097C83.1973 40.3326 83.4913 40.4504 83.8502 40.4504C84.075 40.4504 84.2912 40.3964 84.4987 40.2883C84.7063 40.1802 84.877 40.0224 85.0111 39.8149C85.1451 39.6052 85.2121 39.3479 85.2121 39.0431Z" fill="white"/>
<path d="M89.2794 35.9656V36.4683H86.9025V35.9656H89.2794ZM87.6451 34.7723H88.2255V39.6462C88.2255 39.8538 88.2612 40.017 88.3325 40.1359C88.4039 40.2526 88.4968 40.3359 88.6114 40.3856C88.726 40.4332 88.8481 40.4569 88.9779 40.4569C89.0535 40.4569 89.1184 40.4526 89.1724 40.444C89.2265 40.4332 89.274 40.4223 89.3151 40.4115L89.4383 40.9336C89.3821 40.9552 89.3129 40.9747 89.2308 40.992C89.1486 41.0115 89.047 41.0212 88.926 41.0212C88.7141 41.0212 88.5098 40.9747 88.3131 40.8817C88.1185 40.7888 87.9585 40.6504 87.8331 40.4667C87.7078 40.2829 87.6451 40.0548 87.6451 39.7824V34.7723Z" fill="white"/>
<path d="M93.7553 39.0431V35.9656H94.3326V40.9466H93.7553V40.1197H93.7099C93.5932 40.3748 93.4084 40.5877 93.1554 40.7585C92.9025 40.9271 92.5933 41.0115 92.228 41.0115C91.9102 41.0115 91.628 40.9423 91.3816 40.8039C91.1351 40.6634 90.9417 40.458 90.8011 40.1878C90.6606 39.9175 90.5903 39.5857 90.5903 39.1922V35.9656H91.1676V39.1566C91.1676 39.5457 91.2821 39.8592 91.5113 40.097C91.7405 40.3326 92.0345 40.4504 92.3934 40.4504C92.6182 40.4504 92.8344 40.3964 93.0419 40.2883C93.2495 40.1802 93.4202 40.0224 93.5543 39.8149C93.6883 39.6052 93.7553 39.3479 93.7553 39.0431Z" fill="white"/>
<path d="M95.8607 40.9466V35.9656H96.4217V36.7309H96.4639C96.5633 36.4802 96.7363 36.278 96.9827 36.1245C97.2314 35.9689 97.5124 35.8911 97.8259 35.8911C97.8734 35.8911 97.9264 35.8921 97.9848 35.8943C98.0431 35.8965 98.0918 35.8986 98.1307 35.9008V36.4877C98.1048 36.4834 98.0594 36.4769 97.9945 36.4683C97.9296 36.4596 97.8594 36.4553 97.7837 36.4553C97.5243 36.4553 97.293 36.5104 97.0898 36.6207C96.8887 36.7288 96.7298 36.879 96.6131 37.0714C96.4963 37.2638 96.438 37.4833 96.438 37.7297V40.9466H95.8607Z" fill="white"/>
<path d="M100.978 41.0504C100.513 41.0504 100.111 40.9423 99.7716 40.7261C99.4321 40.5077 99.1695 40.2062 98.9836 39.8213C98.7998 39.4344 98.7079 38.989 98.7079 38.4853C98.7079 37.9837 98.7998 37.5384 98.9836 37.1493C99.1695 36.758 99.4257 36.4521 99.7521 36.2315C100.081 36.0089 100.46 35.8975 100.89 35.8975C101.161 35.8975 101.421 35.9473 101.672 36.0467C101.923 36.144 102.147 36.2942 102.346 36.4975C102.547 36.6985 102.706 36.9525 102.823 37.2595C102.94 37.5643 102.998 37.9254 102.998 38.3426V38.628H99.1068V38.1189H102.408C102.408 37.7989 102.343 37.5114 102.213 37.2563C102.086 36.999 101.907 36.7958 101.678 36.6466C101.451 36.4975 101.189 36.4229 100.89 36.4229C100.575 36.4229 100.297 36.5072 100.057 36.6758C99.817 36.8444 99.6289 37.0671 99.4927 37.3438C99.3586 37.6206 99.2905 37.9232 99.2884 38.2518V38.5566C99.2884 38.9523 99.3565 39.2982 99.4927 39.5943C99.631 39.8884 99.8267 40.1164 100.08 40.2786C100.333 40.4407 100.632 40.5218 100.978 40.5218C101.214 40.5218 101.42 40.485 101.597 40.4115C101.777 40.338 101.927 40.2397 102.048 40.1164C102.171 39.991 102.264 39.8538 102.327 39.7046L102.875 39.883C102.799 40.0927 102.675 40.2861 102.502 40.4634C102.331 40.6407 102.117 40.7834 101.86 40.8915C101.605 40.9974 101.311 41.0504 100.978 41.0504Z" fill="white"/>
<path d="M108.888 35.9656V36.4683H106.44V35.9656H108.888ZM107.205 40.9466V35.236C107.205 34.9679 107.267 34.742 107.39 34.5583C107.515 34.3745 107.678 34.2351 107.879 34.1399C108.08 34.0448 108.293 33.9972 108.518 33.9972C108.67 33.9972 108.795 34.0102 108.894 34.0362C108.996 34.0599 109.076 34.0837 109.134 34.1075L108.966 34.6134C108.923 34.6004 108.87 34.5853 108.807 34.568C108.744 34.5507 108.665 34.542 108.57 34.542C108.319 34.542 108.126 34.6123 107.99 34.7528C107.853 34.8933 107.785 35.0944 107.785 35.356L107.782 40.9466H107.205Z" fill="white"/>
<path d="M111.771 41.0504C111.341 41.0504 110.96 40.9412 110.629 40.7228C110.301 40.5045 110.043 40.2029 109.858 39.8181C109.672 39.4311 109.579 38.9847 109.579 38.4788C109.579 37.9686 109.672 37.52 109.858 37.133C110.043 36.7439 110.301 36.4412 110.629 36.2251C110.96 36.0067 111.341 35.8975 111.771 35.8975C112.201 35.8975 112.58 36.0067 112.909 36.2251C113.238 36.4434 113.495 36.7461 113.681 37.133C113.869 37.52 113.963 37.9686 113.963 38.4788C113.963 38.9847 113.87 39.4311 113.684 39.8181C113.498 40.2029 113.24 40.5045 112.909 40.7228C112.58 40.9412 112.201 41.0504 111.771 41.0504ZM111.771 40.5218C112.117 40.5218 112.41 40.4288 112.65 40.2429C112.89 40.057 113.071 39.8094 113.194 39.5003C113.32 39.1912 113.382 38.8507 113.382 38.4788C113.382 38.107 113.32 37.7654 113.194 37.4541C113.071 37.1428 112.89 36.8931 112.65 36.705C112.41 36.5169 112.117 36.4229 111.771 36.4229C111.427 36.4229 111.134 36.5169 110.892 36.705C110.652 36.8931 110.469 37.1428 110.344 37.4541C110.221 37.7654 110.159 38.107 110.159 38.4788C110.159 38.8507 110.221 39.1912 110.344 39.5003C110.469 39.8094 110.652 40.057 110.892 40.2429C111.132 40.4288 111.425 40.5218 111.771 40.5218Z" fill="white"/>
<path d="M115.807 34.3053V40.9466H115.23V34.3053H115.807Z" fill="white"/>
<path d="M119.128 41.0504C118.719 41.0504 118.362 40.9423 118.055 40.7261C117.748 40.5099 117.508 40.2083 117.335 39.8213C117.164 39.4344 117.078 38.9836 117.078 38.4691C117.078 37.9567 117.164 37.5081 117.335 37.1233C117.508 36.7363 117.749 36.4358 118.058 36.2218C118.367 36.0056 118.727 35.8975 119.138 35.8975C119.44 35.8975 119.692 35.9516 119.893 36.0597C120.094 36.1656 120.255 36.2975 120.376 36.4553C120.497 36.6131 120.592 36.7666 120.659 36.9158H120.71V34.3053H121.291V40.9466H120.727V40.0224H120.659C120.592 40.1737 120.496 40.3294 120.373 40.4894C120.25 40.6472 120.087 40.7801 119.884 40.8882C119.682 40.9963 119.431 41.0504 119.128 41.0504ZM119.196 40.5218C119.518 40.5218 119.793 40.4342 120.02 40.2591C120.247 40.0818 120.42 39.8386 120.539 39.5295C120.66 39.2182 120.72 38.8615 120.72 38.4594C120.72 38.0616 120.661 37.7103 120.542 37.4054C120.423 37.0985 120.25 36.8585 120.023 36.6855C119.796 36.5104 119.52 36.4229 119.196 36.4229C118.863 36.4229 118.582 36.5137 118.353 36.6953C118.126 36.8747 117.953 37.1179 117.834 37.4249C117.717 37.7319 117.659 38.0767 117.659 38.4594C117.659 38.8463 117.718 39.1955 117.837 39.5068C117.956 39.8181 118.129 40.0656 118.356 40.2494C118.585 40.431 118.865 40.5218 119.196 40.5218Z" fill="white"/>
</svg>
