<svg width="44" height="43" viewBox="0 0 44 43" fill="none" xmlns="http://www.w3.org/2000/svg">
<path d="M12.4797 40.6086V41.9953H13.8664V40.6086H12.4797ZM4.95229 40.6086L3.8925 41.5028C4.15597 41.8151 4.54373 41.9953 4.95229 41.9953V40.6086ZM1.38666 36.3827H2.26498e-05C2.26498e-05 36.71 0.115799 37.0267 0.326865 37.2769L1.38666 36.3827ZM1.38666 4.95229L0.406159 3.97179C0.146114 4.23184 2.26498e-05 4.58453 2.26498e-05 4.95229H1.38666ZM4.95229 1.38666V2.26498e-05C4.58453 2.26498e-05 4.23184 0.146114 3.97179 0.406159L4.95229 1.38666ZM38.8918 1.38666L39.8723 0.406159C39.6123 0.146114 39.2596 2.26498e-05 38.8918 2.26498e-05V1.38666ZM42.4575 4.95229H43.8441C43.8441 4.58453 43.698 4.23184 43.438 3.97179L42.4575 4.95229ZM42.4575 36.3827L43.5173 37.2769C43.7283 37.0267 43.8441 36.71 43.8441 36.3827H42.4575ZM38.8918 40.6086V41.9953C39.3004 41.9953 39.6882 41.8151 39.9516 41.5028L38.8918 40.6086ZM31.5625 40.6086H30.1758V41.9953H31.5625V40.6086ZM12.4797 20.0072H11.0931V40.6086H12.4797H13.8664V20.0072H12.4797ZM12.4797 40.6086V39.222H4.95229V40.6086V41.9953H12.4797V40.6086ZM4.95229 40.6086L6.01208 39.7144L2.44645 35.4885L1.38666 36.3827L0.326865 37.2769L3.8925 41.5028L4.95229 40.6086ZM1.38666 36.3827H2.77329V4.95229H1.38666H2.26498e-05V36.3827H1.38666ZM1.38666 4.95229L2.36716 5.93279L5.93279 2.36716L4.95229 1.38666L3.97179 0.406159L0.406159 3.97179L1.38666 4.95229ZM4.95229 1.38666V2.77329H38.8918V1.38666V2.26498e-05H4.95229V1.38666ZM38.8918 1.38666L37.9113 2.36716L41.477 5.93279L42.4575 4.95229L43.438 3.97179L39.8723 0.406159L38.8918 1.38666ZM42.4575 4.95229H41.0708V36.3827H42.4575H43.8441V4.95229H42.4575ZM38.8918 40.6086V39.222H31.5625V40.6086V41.9953H38.8918V40.6086ZM31.5625 40.6086H32.9491V22.9785H31.5625H30.1758V40.6086H31.5625ZM17.2339 23.5728H15.8473V42.0613H17.2339H18.6206V23.5728H17.2339ZM21.856 11.4893H20.4694V42.0613H21.856H23.2427V11.4893H21.856ZM24.8934 25.9499L23.5269 26.1851L26.3002 42.2965L27.6667 42.0613L29.0332 41.8261L26.26 25.7147L24.8934 25.9499ZM42.4575 36.3827L41.3977 35.4885L37.832 39.7144L38.8918 40.6086L39.9516 41.5028L43.5173 37.2769L42.4575 36.3827Z" fill="#1E4A37"/>
</svg>
