<svg width="171" height="43" viewBox="0 0 171 43" fill="none" xmlns="http://www.w3.org/2000/svg">
<path d="M12.4797 40.6086V41.9953H13.8664V40.6086H12.4797ZM4.95229 40.6086L3.8925 41.5028C4.15597 41.8151 4.54373 41.9953 4.95229 41.9953V40.6086ZM1.38666 36.3827H2.26498e-05C2.26498e-05 36.71 0.115799 37.0267 0.326865 37.2769L1.38666 36.3827ZM1.38666 4.95229L0.406159 3.97179C0.146114 4.23184 2.26498e-05 4.58453 2.26498e-05 4.95229H1.38666ZM4.95229 1.38666V2.26498e-05C4.58453 2.26498e-05 4.23184 0.146114 3.97179 0.406159L4.95229 1.38666ZM38.8918 1.38666L39.8723 0.406159C39.6123 0.146114 39.2596 2.26498e-05 38.8918 2.26498e-05V1.38666ZM42.4575 4.95229H43.8441C43.8441 4.58453 43.698 4.23184 43.438 3.97179L42.4575 4.95229ZM42.4575 36.3827L43.5173 37.2769C43.7283 37.0267 43.8441 36.71 43.8441 36.3827H42.4575ZM38.8918 40.6086V41.9953C39.3004 41.9953 39.6882 41.8151 39.9516 41.5028L38.8918 40.6086ZM31.5625 40.6086H30.1758V41.9953H31.5625V40.6086ZM12.4797 20.0072H11.0931V40.6086H12.4797H13.8664V20.0072H12.4797ZM12.4797 40.6086V39.222H4.95229V40.6086V41.9953H12.4797V40.6086ZM4.95229 40.6086L6.01208 39.7144L2.44645 35.4885L1.38666 36.3827L0.326865 37.2769L3.8925 41.5028L4.95229 40.6086ZM1.38666 36.3827H2.77329V4.95229H1.38666H2.26498e-05V36.3827H1.38666ZM1.38666 4.95229L2.36716 5.93279L5.93279 2.36716L4.95229 1.38666L3.97179 0.406159L0.406159 3.97179L1.38666 4.95229ZM4.95229 1.38666V2.77329H38.8918V1.38666V2.26498e-05H4.95229V1.38666ZM38.8918 1.38666L37.9113 2.36716L41.477 5.93279L42.4575 4.95229L43.438 3.97179L39.8723 0.406159L38.8918 1.38666ZM42.4575 4.95229H41.0708V36.3827H42.4575H43.8441V4.95229H42.4575ZM38.8918 40.6086V39.222H31.5625V40.6086V41.9953H38.8918V40.6086ZM31.5625 40.6086H32.9491V22.9785H31.5625H30.1758V40.6086H31.5625ZM17.2339 23.5728H15.8473V42.0613H17.2339H18.6206V23.5728H17.2339ZM21.856 11.4893H20.4694V42.0613H21.856H23.2427V11.4893H21.856ZM24.8934 25.9499L23.5269 26.1851L26.3002 42.2965L27.6667 42.0613L29.0332 41.8261L26.26 25.7147L24.8934 25.9499ZM42.4575 36.3827L41.3977 35.4885L37.832 39.7144L38.8918 40.6086L39.9516 41.5028L43.5173 37.2769L42.4575 36.3827Z" fill="white"/>
<path d="M60.026 33.2812L68.4466 12.704H70.4628L78.8538 33.2812H75.8295L68.921 15.8766H69.9588L62.991 33.2812H60.026ZM64.0288 28.6261V26.1948H74.851V28.6261H64.0288Z" fill="white"/>
<path d="M81.7088 33.2812V19.1974H84.3773V33.2812H81.7088ZM84.3773 25.246L83.3692 24.8012C83.3692 23.0025 83.7843 21.5694 84.6145 20.502C85.4447 19.4346 86.6406 18.9009 88.2021 18.9009C88.9137 18.9009 89.5561 19.0294 90.1294 19.2863C90.7026 19.5235 91.2363 19.9288 91.7305 20.502L89.9811 22.3106C89.6846 21.9944 89.3585 21.7671 89.0027 21.6287C88.6469 21.4903 88.2318 21.4211 87.7574 21.4211C86.769 21.4211 85.9586 21.7374 85.3261 22.3699C84.6935 23.0025 84.3773 23.9612 84.3773 25.246Z" fill="white"/>
<path d="M99.5801 33.5777C98.1964 33.5777 96.9412 33.2515 95.8145 32.5992C94.7076 31.9469 93.828 31.0673 93.1757 29.9604C92.5432 28.8337 92.2269 27.5884 92.2269 26.2244C92.2269 24.8408 92.5432 23.5955 93.1757 22.4885C93.828 21.3816 94.7076 20.5119 95.8145 19.8793C96.9412 19.227 98.1964 18.9009 99.5801 18.9009C100.667 18.9009 101.675 19.1084 102.604 19.5235C103.533 19.9189 104.334 20.502 105.006 21.2729L103.227 23.0519C102.792 22.538 102.258 22.1525 101.626 21.8955C101.013 21.6188 100.331 21.4804 99.5801 21.4804C98.6906 21.4804 97.8999 21.688 97.2081 22.1031C96.5163 22.4984 95.9727 23.0519 95.5773 23.7635C95.182 24.4751 94.9843 25.2954 94.9843 26.2244C94.9843 27.1535 95.182 27.9738 95.5773 28.6854C95.9727 29.397 96.5163 29.9604 97.2081 30.3755C97.8999 30.7906 98.6906 30.9981 99.5801 30.9981C100.331 30.9981 101.013 30.8696 101.626 30.6127C102.258 30.3359 102.802 29.9406 103.257 29.4267L105.006 31.2057C104.354 31.9568 103.553 32.5399 102.604 32.955C101.675 33.3701 100.667 33.5777 99.5801 33.5777Z" fill="white"/>
<path d="M117.615 33.2812V25.0681C117.615 24.0007 117.279 23.1211 116.607 22.4292C115.935 21.7374 115.065 21.3915 113.998 21.3915C113.286 21.3915 112.654 21.5496 112.1 21.8659C111.547 22.1822 111.112 22.617 110.795 23.1705C110.479 23.724 110.321 24.3565 110.321 25.0681L109.224 24.4454C109.224 23.378 109.461 22.4292 109.936 21.599C110.41 20.7688 111.072 20.1165 111.922 19.6421C112.772 19.148 113.731 18.9009 114.798 18.9009C115.866 18.9009 116.805 19.1381 117.615 19.6125C118.445 20.0869 119.097 20.7491 119.572 21.599C120.046 22.449 120.283 23.4275 120.283 24.5344V33.2812H117.615ZM107.653 33.2812V12.111H110.321V33.2812H107.653Z" fill="white"/>
<path d="M123.926 33.2812V19.1974H126.595V33.2812H123.926ZM125.26 16.3806C124.766 16.3806 124.361 16.2225 124.045 15.9062C123.728 15.5702 123.57 15.1551 123.57 14.6609C123.57 14.1865 123.728 13.7912 124.045 13.4749C124.361 13.1389 124.766 12.9709 125.26 12.9709C125.754 12.9709 126.16 13.1389 126.476 13.4749C126.792 13.7912 126.95 14.1865 126.95 14.6609C126.95 15.1551 126.792 15.5702 126.476 15.9062C126.16 16.2225 125.754 16.3806 125.26 16.3806Z" fill="white"/>
<path d="M135.36 33.2812L128.896 19.1974H131.861L137.05 31.0871H135.33L140.549 19.1974H143.395L136.932 33.2812H135.36Z" fill="white"/>
<path d="M151.334 33.5777C150.187 33.5777 149.15 33.3207 148.221 32.8068C147.311 32.2731 146.6 31.5417 146.086 30.6127C145.572 29.6836 145.315 28.6063 145.315 27.3808V19.1974H147.983V27.2622C147.983 28.0331 148.112 28.7052 148.369 29.2784C148.646 29.8319 149.041 30.2569 149.555 30.5534C150.069 30.8499 150.672 30.9981 151.363 30.9981C152.411 30.9981 153.231 30.672 153.824 30.0197C154.417 29.3476 154.714 28.4284 154.714 27.2622V19.1974H157.382V27.3808C157.382 28.6063 157.125 29.6836 156.612 30.6127C156.098 31.5417 155.386 32.2731 154.477 32.8068C153.587 33.3207 152.54 33.5777 151.334 33.5777Z" fill="white"/>
<path d="M165.436 33.5777C164.645 33.5777 163.894 33.4788 163.183 33.2812C162.491 33.0637 161.848 32.7672 161.255 32.3917C160.662 31.9963 160.149 31.5318 159.714 30.9981L161.433 29.2784C161.947 29.9109 162.54 30.3853 163.212 30.7016C163.884 30.9981 164.636 31.1464 165.466 31.1464C166.296 31.1464 166.938 31.008 167.393 30.7313C167.848 30.4348 168.075 30.0295 168.075 29.5156C168.075 29.0017 167.887 28.6063 167.512 28.3296C167.156 28.0331 166.691 27.7959 166.118 27.618C165.545 27.4203 164.932 27.2326 164.28 27.0547C163.647 26.857 163.044 26.6099 162.471 26.3134C161.898 26.0169 161.423 25.6117 161.048 25.0977C160.692 24.5838 160.514 23.9019 160.514 23.0519C160.514 22.2019 160.722 21.4706 161.137 20.8578C161.552 20.2253 162.125 19.741 162.857 19.4049C163.608 19.0689 164.507 18.9009 165.555 18.9009C166.662 18.9009 167.64 19.0986 168.49 19.4939C169.36 19.8695 170.071 20.4427 170.625 21.2136L168.905 22.9333C168.51 22.4194 168.016 22.024 167.423 21.7473C166.849 21.4706 166.197 21.3322 165.466 21.3322C164.695 21.3322 164.102 21.4706 163.687 21.7473C163.291 22.0043 163.094 22.3699 163.094 22.8443C163.094 23.3187 163.272 23.6844 163.627 23.9414C163.983 24.1984 164.448 24.4158 165.021 24.5937C165.614 24.7716 166.227 24.9594 166.859 25.157C167.492 25.3349 168.095 25.582 168.668 25.8983C169.241 26.2146 169.706 26.6396 170.062 27.1733C170.437 27.707 170.625 28.4087 170.625 29.2784C170.625 30.6028 170.15 31.6504 169.202 32.4213C168.273 33.1922 167.017 33.5777 165.436 33.5777Z" fill="white"/>
</svg>
