<svg width="171" height="43" viewBox="0 0 171 43" fill="none" xmlns="http://www.w3.org/2000/svg">
<path d="M12.4797 40.6086V41.9953H13.8663V40.6086H12.4797ZM4.95223 40.6086L3.89244 41.5028C4.1559 41.8151 4.54367 41.9953 4.95223 41.9953V40.6086ZM1.3866 36.3827H-3.83854e-05C-3.83854e-05 36.71 0.115738 37.0267 0.326804 37.2769L1.3866 36.3827ZM1.3866 4.95229L0.406098 3.97179C0.146053 4.23184 -3.83854e-05 4.58453 -3.83854e-05 4.95229H1.3866ZM4.95223 1.38666V2.26498e-05C4.58447 2.26498e-05 4.23178 0.146114 3.97173 0.406159L4.95223 1.38666ZM38.8918 1.38666L39.8723 0.406159C39.6122 0.146114 39.2595 2.26498e-05 38.8918 2.26498e-05V1.38666ZM42.4574 4.95229H43.844C43.844 4.58453 43.6979 4.23184 43.4379 3.97179L42.4574 4.95229ZM42.4574 36.3827L43.5172 37.2769C43.7283 37.0267 43.844 36.71 43.844 36.3827H42.4574ZM38.8918 40.6086V41.9953C39.3003 41.9953 39.6881 41.8151 39.9516 41.5028L38.8918 40.6086ZM31.5624 40.6086H30.1758V41.9953H31.5624V40.6086ZM12.4797 20.0072H11.093V40.6086H12.4797H13.8663V20.0072H12.4797ZM12.4797 40.6086V39.222H4.95223V40.6086V41.9953H12.4797V40.6086ZM4.95223 40.6086L6.01202 39.7144L2.44639 35.4885L1.3866 36.3827L0.326804 37.2769L3.89244 41.5028L4.95223 40.6086ZM1.3866 36.3827H2.77323V4.95229H1.3866H-3.83854e-05V36.3827H1.3866ZM1.3866 4.95229L2.3671 5.93279L5.93273 2.36716L4.95223 1.38666L3.97173 0.406159L0.406098 3.97179L1.3866 4.95229ZM4.95223 1.38666V2.77329H38.8918V1.38666V2.26498e-05H4.95223V1.38666ZM38.8918 1.38666L37.9113 2.36716L41.4769 5.93279L42.4574 4.95229L43.4379 3.97179L39.8723 0.406159L38.8918 1.38666ZM42.4574 4.95229H41.0708V36.3827H42.4574H43.844V4.95229H42.4574ZM38.8918 40.6086V39.222H31.5624V40.6086V41.9953H38.8918V40.6086ZM31.5624 40.6086H32.9491V22.9785H31.5624H30.1758V40.6086H31.5624ZM17.2339 23.5728H15.8472V42.0613H17.2339H18.6205V23.5728H17.2339ZM21.856 11.4893H20.4693V42.0613H21.856H23.2426V11.4893H21.856ZM24.8934 25.9499L23.5268 26.1851L26.3001 42.2965L27.6666 42.0613L29.0332 41.8261L26.2599 25.7147L24.8934 25.9499ZM42.4574 36.3827L41.3976 35.4885L37.832 39.7144L38.8918 40.6086L39.9516 41.5028L43.5172 37.2769L42.4574 36.3827Z" fill="#1E4A37"/>
<path d="M60.0258 33.2812L68.4464 12.704H70.4626L78.8535 33.2812H75.8292L68.9208 15.8766H69.9585L62.9908 33.2812H60.0258ZM64.0285 28.6261V26.1948H74.8508V28.6261H64.0285Z" fill="black"/>
<path d="M81.7085 33.2812V19.1974H84.377V33.2812H81.7085ZM84.377 25.246L83.3689 24.8012C83.3689 23.0025 83.784 21.5694 84.6142 20.502C85.4444 19.4346 86.6403 18.9009 88.2019 18.9009C88.9135 18.9009 89.5559 19.0294 90.1291 19.2863C90.7024 19.5235 91.2361 19.9288 91.7302 20.502L89.9809 22.3106C89.6844 21.9944 89.3582 21.7671 89.0024 21.6287C88.6466 21.4903 88.2315 21.4211 87.7571 21.4211C86.7688 21.4211 85.9584 21.7374 85.3258 22.3699C84.6933 23.0025 84.377 23.9612 84.377 25.246Z" fill="black"/>
<path d="M99.5799 33.5777C98.1962 33.5777 96.941 33.2515 95.8143 32.5992C94.7074 31.9469 93.8277 31.0673 93.1754 29.9604C92.5429 28.8337 92.2266 27.5884 92.2266 26.2244C92.2266 24.8408 92.5429 23.5955 93.1754 22.4885C93.8277 21.3816 94.7074 20.5119 95.8143 19.8793C96.941 19.227 98.1962 18.9009 99.5799 18.9009C100.667 18.9009 101.675 19.1084 102.604 19.5235C103.533 19.9189 104.334 20.502 105.006 21.2729L103.227 23.0519C102.792 22.538 102.258 22.1525 101.626 21.8955C101.013 21.6188 100.331 21.4804 99.5799 21.4804C98.6904 21.4804 97.8997 21.688 97.2078 22.1031C96.516 22.4984 95.9724 23.0519 95.5771 23.7635C95.1818 24.4751 94.9841 25.2954 94.9841 26.2244C94.9841 27.1535 95.1818 27.9738 95.5771 28.6854C95.9724 29.397 96.516 29.9604 97.2078 30.3755C97.8997 30.7906 98.6904 30.9981 99.5799 30.9981C100.331 30.9981 101.013 30.8696 101.626 30.6127C102.258 30.3359 102.802 29.9406 103.256 29.4267L105.006 31.2057C104.354 31.9568 103.553 32.5399 102.604 32.955C101.675 33.3701 100.667 33.5777 99.5799 33.5777Z" fill="black"/>
<path d="M117.615 33.2812V25.0681C117.615 24.0007 117.279 23.1211 116.607 22.4292C115.935 21.7374 115.065 21.3915 113.997 21.3915C113.286 21.3915 112.653 21.5496 112.1 21.8659C111.546 22.1822 111.111 22.617 110.795 23.1705C110.479 23.724 110.321 24.3565 110.321 25.0681L109.224 24.4454C109.224 23.378 109.461 22.4292 109.935 21.599C110.41 20.7688 111.072 20.1165 111.922 19.6421C112.772 19.148 113.731 18.9009 114.798 18.9009C115.865 18.9009 116.804 19.1381 117.615 19.6125C118.445 20.0869 119.097 20.7491 119.572 21.599C120.046 22.449 120.283 23.4275 120.283 24.5344V33.2812H117.615ZM107.652 33.2812V12.111H110.321V33.2812H107.652Z" fill="black"/>
<path d="M123.926 33.2812V19.1974H126.594V33.2812H123.926ZM125.26 16.3806C124.766 16.3806 124.361 16.2225 124.044 15.9062C123.728 15.5702 123.57 15.1551 123.57 14.6609C123.57 14.1865 123.728 13.7912 124.044 13.4749C124.361 13.1389 124.766 12.9709 125.26 12.9709C125.754 12.9709 126.159 13.1389 126.476 13.4749C126.792 13.7912 126.95 14.1865 126.95 14.6609C126.95 15.1551 126.792 15.5702 126.476 15.9062C126.159 16.2225 125.754 16.3806 125.26 16.3806Z" fill="black"/>
<path d="M135.36 33.2812L128.896 19.1974H131.861L137.05 31.0871H135.33L140.549 19.1974H143.395L136.931 33.2812H135.36Z" fill="black"/>
<path d="M151.334 33.5777C150.187 33.5777 149.149 33.3207 148.22 32.8068C147.311 32.2731 146.599 31.5417 146.085 30.6127C145.572 29.6836 145.315 28.6063 145.315 27.3808V19.1974H147.983V27.2622C147.983 28.0331 148.112 28.7052 148.369 29.2784C148.645 29.8319 149.041 30.2569 149.555 30.5534C150.068 30.8499 150.671 30.9981 151.363 30.9981C152.411 30.9981 153.231 30.672 153.824 30.0197C154.417 29.3476 154.714 28.4284 154.714 27.2622V19.1974H157.382V27.3808C157.382 28.6063 157.125 29.6836 156.611 30.6127C156.097 31.5417 155.386 32.2731 154.476 32.8068C153.587 33.3207 152.539 33.5777 151.334 33.5777Z" fill="black"/>
<path d="M165.436 33.5777C164.645 33.5777 163.894 33.4788 163.182 33.2812C162.491 33.0637 161.848 32.7672 161.255 32.3917C160.662 31.9963 160.148 31.5318 159.713 30.9981L161.433 29.2784C161.947 29.9109 162.54 30.3853 163.212 30.7016C163.884 30.9981 164.635 31.1464 165.466 31.1464C166.296 31.1464 166.938 31.008 167.393 30.7313C167.847 30.4348 168.075 30.0295 168.075 29.5156C168.075 29.0017 167.887 28.6063 167.511 28.3296C167.156 28.0331 166.691 27.7959 166.118 27.618C165.545 27.4203 164.932 27.2326 164.28 27.0547C163.647 26.857 163.044 26.6099 162.471 26.3134C161.898 26.0169 161.423 25.6117 161.048 25.0977C160.692 24.5838 160.514 23.9019 160.514 23.0519C160.514 22.2019 160.722 21.4706 161.137 20.8578C161.552 20.2253 162.125 19.741 162.856 19.4049C163.607 19.0689 164.507 18.9009 165.554 18.9009C166.661 18.9009 167.64 19.0986 168.49 19.4939C169.36 19.8695 170.071 20.4427 170.625 21.2136L168.905 22.9333C168.51 22.4194 168.015 22.024 167.422 21.7473C166.849 21.4706 166.197 21.3322 165.466 21.3322C164.695 21.3322 164.102 21.4706 163.687 21.7473C163.291 22.0043 163.094 22.3699 163.094 22.8443C163.094 23.3187 163.271 23.6844 163.627 23.9414C163.983 24.1984 164.448 24.4158 165.021 24.5937C165.614 24.7716 166.227 24.9594 166.859 25.157C167.492 25.3349 168.094 25.582 168.668 25.8983C169.241 26.2146 169.705 26.6396 170.061 27.1733C170.437 27.707 170.625 28.4087 170.625 29.2784C170.625 30.6028 170.15 31.6504 169.201 32.4213C168.272 33.1922 167.017 33.5777 165.436 33.5777Z" fill="black"/>
</svg>
